<?xml version="1.0" encoding="utf-8"?>
<!-- Generator: Adobe Illustrator 27.5.0, SVG Export Plug-In . SVG Version: 6.00 Build 0)  -->
<svg version="1.1" id="Layer_1" xmlns="http://www.w3.org/2000/svg" xmlns:xlink="http://www.w3.org/1999/xlink" x="0px" y="0px"
	 viewBox="0 0 1737.2 1192.9" style="enable-background:new 0 0 1737.2 1192.9;" xml:space="preserve">
<style type="text/css">
	.st0{fill:#222222;}
</style>
<g>
	<polygon class="st0" points="440.5,611.2 388.4,611.2 388.4,585.8 436.9,585.8 436.9,561.8 388.4,561.8 388.4,540.1 439.2,540.1 
		439.2,516.3 353.6,516.3 353.6,635.2 440.5,635.2 	"/>
	<polygon class="st0" points="928.3,606.6 875.6,606.6 875.6,516.3 840.8,516.3 840.8,635.2 928.3,635.2 	"/>
	<path class="st0" d="M1232,569.8h-46.1v24h15.7v14c-5.1,1.3-9.8,1.9-14.2,1.9c-7.9,0-14.6-1.5-20-4.5c-5.5-3.2-9.6-7.2-12.3-12.3
		c-2.6-5.1-4.2-10.6-4.2-16.6c0-5.1,1.3-10.4,3.6-15.9c2.3-5.5,6.4-10.2,12.5-14c6.2-4,14.2-6,24.2-6c8.7,0,15.9,1.1,21.7,3.2
		c5.9,2.3,11.5,4.7,16.6,7.9v-28.2c-7.9-2.5-15.1-4.7-21.7-6.2c-6.6-1.5-14.9-2.3-25.1-2.3c-6.2,0-11.9,0.2-17,0.9
		c-4.9,0.8-10.2,2.3-15.7,4.3c-5.3,2.5-10.6,5.5-15.9,9.6c-6.2,5.1-11,11.7-14.2,20.2c-3,8.3-4.5,16.8-4.5,25.5
		c0,13.6,3,24.9,9.1,34.2c5.9,9.3,13.8,16.1,23.8,20.4c9.8,4.3,20.6,6.6,32.3,6.6c5.9,0,11.3-0.4,16.6-0.9
		c5.3-0.8,10.4-1.7,15.7-2.8c3.2-0.9,5.7-1.7,7.2-2.1l5.1-1.7c1.9-0.8,4-1.5,6.4-2.5L1232,569.8z"/>
	<path class="st0" d="M680.7,619.9c3.6-5.5,5.5-11.9,5.5-19.5c0-6.6-1.5-12.1-4.2-16.6c-3-4.5-7.2-8.3-12.5-11.9
		c-5.3-3.4-12.5-7.2-21.4-11.5c-4.9-2.5-8.3-4.5-10.4-6.2c-1.9-1.7-2.8-3.8-2.8-6c0-2.6,0.9-4.7,2.8-6.4c2.1-1.7,5.1-2.6,9.4-2.6
		c6.6,0,12.9,1.5,18.7,4.2c5.7,2.8,11,5.9,15.7,9.5v-28c-1.1-0.9-3.6-2.3-7.2-3.8c-3.6-1.7-8.1-3-13.6-4.3
		c-5.3-1.3-11.3-1.9-17.8-1.9c-9.3,0-16.8,1.3-23.1,4.5c-6.2,3.2-11,7.4-14,12.5c-3,5.1-4.5,11-4.5,17.4c0,6.4,1.3,12.3,4.3,17.2
		c3.2,4.9,7,8.9,11.7,12.1c4.7,3.4,10.4,6.4,16.6,9.1c5.7,2.3,10,4.5,13,6.8c2.8,2.1,4.3,4.7,4.3,7.9c0,1.9-0.9,3.6-2.6,5.7
		c-1.7,2.3-5.5,3.2-11.5,3.2c-6.4,0-12.5-1.3-18.1-3.8c-5.7-2.5-11.5-5.5-17.2-9.3v29.3c6,2.6,12.1,4.7,17.8,6.2
		c5.9,1.5,10.4,2.3,13.8,2.6c3.6,0.4,6.4,0.6,8.9,0.6c8.5,0,16.1-1.3,22.7-4.3C671.8,629.5,676.9,625.3,680.7,619.9z"/>
	<polygon class="st0" points="820.6,516.3 701.3,516.3 701.3,545.2 743.7,545.2 743.7,635.2 778.2,635.2 778.2,545.2 820.4,545.2 	
		"/>
	<path class="st0" d="M539.4,516.3h-38.6L450,635.2h35.3l9.6-24.2h50.3l9.4,24.2h35.5L539.4,516.3z M503.4,590.4l17-43.5l17,43.5
		H503.4z"/>
	<rect x="1059.1" y="516.3" class="st0" width="34.8" height="118.9"/>
	<polygon class="st0" points="1035.7,611.2 983.5,611.2 983.5,585.8 1031.9,585.8 1031.9,561.8 983.5,561.8 983.5,540.1 
		1034.3,540.1 1034.3,516.3 948.7,516.3 948.7,635.2 1035.7,635.2 	"/>
	<polygon class="st0" points="1346.2,560 1293.8,560 1293.8,516.3 1259.1,516.3 1259.1,635.2 1293.8,635.2 1293.8,588.7 
		1346.2,588.7 1346.2,635.2 1380.8,635.2 1380.8,516.3 1346.2,516.3 	"/>
	<path class="st0" d="M1391.5,425.9L346.2,426c-26.2,0-46.8,19.6-46.8,44.5V721c0,25.4,20.7,46,46.2,46h1045.9c25.4,0,46-20.6,46-46
		l0.2-249.1C1437.8,446.5,1417,425.9,1391.5,425.9z M1432.8,721L1432.8,721c0,22.8-18.5,41.3-41.3,41.3H345.6
		c-22.9,0-41.5-18.5-41.5-41.3v-250l758,0.2c-2.8-3.6-4.7-8.1-4.7-13c0-11,8.9-19.8,19.8-19.8c10.8,0,19.8,8.9,19.8,19.8
		c0,4.9-2.1,9.6-5.1,13h341c0,0.3,0,0.5,0,0.8L1432.8,721z"/>
	<path class="st0" d="M446.4,653.3c-9.5,0-17.3,3-23.9,9.2c-6.2,6.4-9.4,14.6-9.4,24.3c0,9.5,3.2,17.5,9.4,23.7
		c6.3,6.2,14.1,9.4,23.3,9.4c9.8,0,18-3.2,24.5-9.4c6.4-6.4,9.6-14.4,9.6-23.9c0-9.5-3.2-17.5-9.6-23.9
		C464,656.4,456,653.3,446.4,653.3z M468.6,686.2c0,6.6-2.1,12-6.3,16.4c-4.2,4.3-9.6,6.6-15.8,6.6c-6.5,0-11.6-2.1-15.8-6.5
		c-4.1-4.1-6.3-9.6-6.3-16c0-6.7,2.1-12.2,6.3-16.4c4-4.2,9.3-6.2,16-6.2c6,0,11.2,2.1,15.6,6.1
		C466.5,674.6,468.6,679.9,468.6,686.2z"/>
	<path class="st0" d="M541.3,705.1c-3.7-6.1-6-9.8-7.8-12c-1.5-2-2.8-3.4-4.1-4.6c2.4-1.3,4.5-3.2,6.3-5.6c1.9-2.9,2.8-6.4,2.8-10.1
		c0-5.6-1.9-10.1-5.7-13.7c-3.8-3.4-8.7-5-15.2-5h-16.1v65.3l10.9,0.2v-27.4h0.9c3.5,0,5,0.6,5.5,0.8c0.9,0.5,2.1,1.4,3.7,3
		c1.3,1.3,3,3.1,4.7,5.8l5.5,9.5l1.5,2.4c0.2,0.5,0.5,0.8,0.7,1l2.9,4.8h13.2l-4.5-6.4C544.9,710.8,543.3,708.5,541.3,705.1z
		 M527.6,672.6c0,1.8-0.5,3.5-1.3,4.9c-0.8,1.3-1.9,2.3-3.3,3c-1.4,0.8-4.2,1.2-8.5,1.2h-2v-17.5h1.5c3.6,0,6.5,0.3,8.9,0.9
		c1.5,0.5,2.8,1.5,3.5,2.7C527.2,669.4,527.6,670.9,527.6,672.6z"/>
	<path class="st0" d="M384.3,684.4c4.6-2.8,7-7.2,7-12.9c0-3.7-0.7-6.7-2.2-9.1c-1.3-2.5-3.7-4.6-6.8-6.2c-3.1-1.5-7.2-2.2-12-2.2
		h-16.9v65.3h21.6c5,0,8.7-0.9,11.7-2.8c3.2-1.6,5.6-3.8,7.3-6.5c1.8-3.1,2.6-6.1,2.6-9.3c0-4.2-1.4-7.9-4.3-11.2
		C390.3,687.3,387.6,685.5,384.3,684.4z M364.4,681v-16.5h6c6.8,0,9.8,2.4,9.8,7.9c0,2.6-0.8,4.7-2.5,6.2c-1.7,1.7-4.6,2.5-8.8,2.5
		H364.4z M364.4,691.4h6.8c4,0,6.8,0.3,9.2,1c1.7,0.7,3.2,1.8,4,3.2c0.9,1.2,1.3,2.6,1.3,4.6c0,1.6-0.4,3.1-1.4,4.5
		c-0.7,1.3-1.9,2.3-3.4,3.1c-1.1,0.5-3.5,1-9.2,1h-7.3V691.4z"/>
	<path class="st0" d="M754.4,696.1h11.5v11.1l-0.2,0.1c-4.7,1.7-8.7,2.6-11.9,2.6c-6.7,0-12.2-2.2-16.3-6.4
		c-4.2-4.4-6.3-10-6.3-16.8c0-6.5,2.1-12,6.3-16.4c4.4-4.6,9.6-6.8,15.8-6.8c6.7,0,13.4,2.1,20.6,6.4l1.8,1.1v-12l-0.7-0.3
		c-4-1.7-7.8-3.2-11.7-4.4c-3.1-0.8-6.4-1.2-9.9-1.2c-9.6,0-17.6,3.3-23.9,9.8c-6.2,6.4-9.4,14.6-9.4,24.3c0,9.2,3.1,17,9.2,23.3
		c6.3,6.2,14.5,9.4,24.5,9.4c7.4,0,14.9-1.8,22.4-5.2l0.7-0.3V686h-22.4V696.1z"/>
	<polygon class="st0" points="1197.9,700.7 1159.3,654 1150.5,654 1150.5,719.3 1161,719.3 1161,672.9 1199.1,719.3 1208.3,719.3 
		1208.3,654 1197.8,654 	"/>
	<path class="st0" d="M1116.5,690.7c0,4.9-0.3,8.2-1.1,10.2c-0.6,1.6-1.6,3.2-3.3,4.8c-3.3,2.6-7.3,3.9-11.7,3.9
		c-3.6,0-6.4-0.6-8.7-1.9l-0.1-0.1c-2.3-0.9-3.8-2.4-5.5-5c-1.1-2-1.7-5.9-1.7-11.7V654h-10.9v36.7c0,4.9,0.3,8.8,1,11.7
		c0.7,2.2,1.7,4.3,2.8,6.3c1.2,1.9,2.4,3.4,3.8,4.6c4.9,4.5,11.4,6.7,19.5,6.7c7.9,0,14.2-2.3,19.5-6.9c1.4-1.2,2.6-2.7,3.8-4.7
		c1-1.8,2-3.8,2.6-6.4c0.6-2.8,1-6.6,1-11.2V654h-10.9L1116.5,690.7z"/>
	<path class="st0" d="M1263.4,709.4c-6.7,0-12.2-2.1-16.3-6.2c-4.2-4.4-6.3-9.7-6.3-16.2c0-6.7,2.1-12,6.4-16.3
		c4.5-4.4,9.9-6.5,16.4-6.5c6.4,0,13,2,19.8,6.1l1.8,1.1v-12.5l-0.7-0.3c-7.8-3.6-14.8-5.4-21.3-5.4c-9.6,0-17.6,3.3-23.9,9.8
		c-6.5,6.5-9.8,14.5-9.8,23.9c0,5.8,1.4,11.3,4.3,16.6c2.6,5,6.3,9,11.4,12.2c5,3,10.9,4.5,17.6,4.5c8.3,0,15.8-1.9,22.3-5.6
		l0.6-0.3v-12.9l-1.9,1.3C1277,707.1,1270.2,709.4,1263.4,709.4z"/>
	<rect x="1307" y="654" class="st0" width="10.9" height="65.3"/>
	<polygon class="st0" points="1352.8,654 1342,654 1342,719.3 1379.9,719.3 1379.9,708.6 1352.8,708.6 	"/>
	<path class="st0" d="M688.6,690.7c0,4.8-0.2,8.2-1.1,10.2c-0.7,1.9-1.7,3.5-3.2,4.8c-3.1,2.6-7.1,3.9-11.7,3.9
		c-3.6,0-6.4-0.6-8.7-1.9l-0.1-0.1c-2.3-1-4-2.6-5.3-5c-1.2-2.1-1.9-6.3-1.9-11.7V654h-10.9v36.7c0,5.2,0.2,9,1,11.6
		c0.5,2.1,1.4,4.2,2.6,6.4c1.2,1.9,2.4,3.4,3.8,4.6c4.9,4.5,11.4,6.7,19.7,6.7c7.8,0,14.3-2.3,19.3-6.9c1.4-1.2,2.6-2.7,3.8-4.7
		c1-1.8,2-3.8,2.6-6.3c0.8-2.6,1.2-6.3,1.2-11.3V654h-11.1V690.7z"/>
	<polygon class="st0" points="842.3,681 811.2,681 811.2,654 800.3,654 800.3,719.3 811.2,719.3 811.2,691.9 842.3,691.9 
		842.3,719.3 853.1,719.3 853.1,654 842.3,654 	"/>
	<path class="st0" d="M592.3,653.3c-9.3,0-17.1,3-23.9,9.2c-6.2,6.4-9.4,14.6-9.4,24.3c0,9.5,3.2,17.5,9.4,23.7
		c6.3,6.2,14.1,9.4,23.3,9.4c9.9,0,18-3.2,24.3-9.4c6.4-6.2,9.6-14.2,9.6-23.9c0-9.6-3.2-17.6-9.4-23.9
		C609.9,656.4,601.9,653.3,592.3,653.3z M614.7,686.2c0,6.6-2.1,12-6.3,16.4c-4.4,4.4-9.8,6.6-16,6.6c-6.4,0-11.7-2.2-15.8-6.5
		c-4.1-4-6.2-9.3-6.2-16c0-6.7,2.1-12.2,6.3-16.4c4-4.2,9.3-6.2,16-6.2c6,0,11.2,2,15.8,6.1C612.7,674.4,614.7,679.7,614.7,686.2z"
		/>
	<path class="st0" d="M946.3,709.4c-6.6,0-12-2.1-16.4-6.3c-4.3-4.3-6.3-9.4-6.3-16.2c0-6.6,2.1-12,6.2-16.3
		c4.5-4.4,9.9-6.5,16.4-6.5c6.6,0,13.1,2,20,6.1l1.8,1.1v-12.5l-0.7-0.3c-7.7-3.6-15-5.4-21.5-5.4c-9.6,0-17.6,3.3-23.9,9.8
		c-6.4,6.4-9.6,14.4-9.6,23.9c0,6.1,1.3,11.5,4.1,16.6c2.6,5,6.3,9,11.4,12.2c4.9,3,11.1,4.5,17.8,4.5c8.3,0,15.8-1.9,22.3-5.6
		l0.6-0.3v-13l-1.9,1.3C960.1,707.1,953.2,709.4,946.3,709.4z"/>
	<path class="st0" d="M1020.5,653.3c-9.6,0-17.6,3.1-23.7,9.3c-6.2,6.6-9.4,14.8-9.4,24.2c0,9.5,3.2,17.5,9.4,23.7
		c6.3,6.2,14,9.4,23.1,9.4c9.9,0,17.9-3.1,24.5-9.4c6.4-6.4,9.6-14.4,9.6-23.9c0-9.5-3.2-17.5-9.6-23.9
		C1038,656.4,1030,653.3,1020.5,653.3z M1042.6,686.2c0,6.8-2,12.1-6.3,16.4c-4.2,4.3-9.6,6.6-15.8,6.6c-6.4,0-11.7-2.2-15.8-6.5
		c-4.1-4.1-6.3-9.6-6.3-16c0-6.7,2.1-12.2,6.3-16.4c4-4.2,9.3-6.2,16-6.2c6.1,0,11.4,2.1,15.6,6.1
		C1040.6,674.4,1042.6,679.7,1042.6,686.2z"/>
</g>
</svg>
