<?xml version="1.0" encoding="utf-8"?>
<!-- Generator: Adobe Illustrator 27.5.0, SVG Export Plug-In . SVG Version: 6.00 Build 0)  -->
<svg version="1.1" id="Layer_1" xmlns="http://www.w3.org/2000/svg" xmlns:xlink="http://www.w3.org/1999/xlink" x="0px" y="0px"
	 viewBox="0 0 1737.2 1192.9" style="enable-background:new 0 0 1737.2 1192.9;" xml:space="preserve">
<style type="text/css">
	.st0{fill:#222222;}
</style>
<g>
	<g>
		<path class="st0" d="M896.8,386.2c1.5,0,2.9,0,4.2,0c40,0,80,0,119.9,0c5.2,0,10.5,0.3,15.5,1.2c34.2,5.7,59.7,34.7,61,69.2
			c0.9,24.5-7.4,45.2-25.9,61.5c-14.1,12.5-31,18-49.7,18c-40.9,0-81.9,0-122.8,0c-1,0-2,0-3,0c0,15.2,0,29.9,0,44.9
			c1.3,0,2.3,0,3.4,0c29.2,0,58.3,0,87.4,0c2,0,3,0.6,4.1,2.3c20.5,33,41.1,65.9,61.7,98.8c18.5,29.6,37,59.2,55.4,88.9
			c0.9,1.4,1.8,1.9,3.5,1.9c14.9,0,29.8,0,44.6,0c0.7,0,1.3-0.1,2.3-0.2c-40.1-64.3-80-128.4-119.7-192.1c8.8-2.3,17.6-4,25.9-6.9
			c26.8-9.1,48.1-25.4,63-49.7c9.5-15.3,14.7-32.1,16.6-50.1c2-19.6-0.2-38.5-7.8-56.7c-19-45.5-64.8-75.9-114.2-76
			c-40.9,0-81.9,0-122.8,0c-0.9,0-1.8,0-2.9,0C896.8,356.3,896.8,371,896.8,386.2z M802.2,728c0-129,0-257.7,0-386.5
			c-15.5,0-30.6,0-45.8,0c0,143.9,0,287.6,0,431.3c86.2,0,172.2,0,258.4,0c-0.4-0.8-0.7-1.3-0.9-1.8c-8.2-13.3-16.6-26.7-24.7-40.1
			c-1.3-2.2-2.7-2.9-5.3-2.9c-59.2,0.1-118.4,0-177.6,0C805,728,803.8,728,802.2,728z M661.6,341.7c-0.5-0.2-0.6-0.4-0.7-0.4
			c-14.6,0-29.2,0-43.8,0c-0.6,0-1.3,1-1.6,1.6c-0.3,0.7,0,1.5,0,2.3c0,130.3,0,260.5,0,390.8c0,2.8,0,5.6-0.1,8.5
			c-0.6,22-7.5,41.5-23.4,57.3c-4.2,4.2-8.8,8-13.3,12.1c7.8,12.5,15.6,25.1,23.5,37.7c0.4-0.1,0.6-0.1,0.7-0.2
			c37.5-25.5,58.3-61,58.6-106.3c0.8-93.4,0.2-186.8,0.2-280.1c0-40.2,0-80.3,0-120.5C661.6,343.5,661.6,342.5,661.6,341.7z"/>
		<path class="st0" d="M896.8,386.2c0-15.2,0-29.9,0-45c1.1,0,2,0,2.9,0c40.9,0,81.9,0,122.8,0c49.4,0,95.2,30.5,114.2,76
			c7.6,18.2,9.9,37.1,7.8,56.7c-1.9,17.9-7.1,34.7-16.6,50.1c-15,24.2-36.3,40.5-63,49.7c-8.4,2.8-17.1,4.6-25.9,6.9
			c39.7,63.7,79.6,127.8,119.7,192.1c-1,0.1-1.7,0.2-2.3,0.2c-14.9,0-29.8,0-44.6,0c-1.7,0-2.6-0.5-3.5-1.9
			c-18.4-29.7-36.9-59.3-55.4-88.9c-20.5-33-41.1-65.9-61.7-98.8c-1-1.6-2.1-2.3-4.1-2.3c-29.2,0-58.3,0-87.4,0c-1.1,0-2.2,0-3.4,0
			c0-15,0-29.8,0-44.9c1,0,2,0,3,0c40.9,0,81.9,0,122.8,0c18.7,0,35.6-5.5,49.7-18c18.5-16.3,26.8-37.1,25.9-61.5
			c-1.3-34.5-26.9-63.5-61-69.2c-5.1-0.8-10.4-1.2-15.5-1.2c-40-0.1-80,0-119.9,0C899.7,386.2,898.3,386.2,896.8,386.2z"/>
		<path class="st0" d="M802.2,728c1.6,0,2.8,0,4.1,0c59.2,0,118.4,0,177.6,0c2.6,0,3.9,0.8,5.3,2.9c8.1,13.4,16.5,26.8,24.7,40.1
			c0.3,0.5,0.6,1,0.9,1.8c-86.3,0-172.3,0-258.4,0c0-143.7,0-287.4,0-431.3c15.2,0,30.4,0,45.8,0C802.2,470.2,802.2,598.9,802.2,728
			z"/>
		<path class="st0" d="M661.6,341.7c0,0.8,0,1.9,0,2.8c0,40.2,0,80.3,0,120.5c0,93.4,0.6,186.8-0.2,280.1
			c-0.4,45.3-21.2,80.8-58.6,106.3c-0.1,0.1-0.3,0.1-0.7,0.2c-7.9-12.6-15.7-25.2-23.5-37.7c4.6-4.1,9.1-7.9,13.3-12.1
			c15.9-15.8,22.8-35.2,23.4-57.3c0.1-2.8,0.1-5.6,0.1-8.5c0-130.3,0-260.5,0-390.8c0-0.8-0.2-1.6,0-2.3c0.3-0.7,1-1.6,1.6-1.6
			c14.6,0,29.2,0,43.8,0C661,341.3,661.2,341.5,661.6,341.7z"/>
	</g>
</g>
</svg>
